{
  "accessors": [
    {
      "bufferView": 0,
      "componentType": 5126,
      "count": 1167,
      "max": [
        0.4792085886001587,
        0.25915613770484924,
        0.26566386222839355
      ],
      "min": [
        -0.4792085886001587,
        -0.04694151505827904,
        -0.2816554009914398
      ],
      "name": "plane03/POSITION",
      "type": "VEC3"
    },
    {
      "bufferView": 0,
      "byteOffset": 12,
      "componentType": 5126,
      "count": 1167,
      "name": "plane03/NORMAL",
      "type": "VEC3"
    },
    {
      "bufferView": 0,
      "byteOffset": 24,
      "componentType": 5126,
      "count": 1167,
      "name": "plane03/TEXCOORD_0",
      "type": "VEC2"
    },
    {
      "bufferView": 1,
      "componentType": 5125,
      "count": 3990,
      "name": "plane03/INDICES",
      "type": "SCALAR"
    }
  ],
  "asset": {
    "copyright": "Copyright (c) 2018-2020 Chukong Technologies Inc.",
    "generator": "FBX-glTF-conv",
    "version": "2.0"
  },
  "bufferViews": [
    {
      "buffer": 0,
      "byteLength": 37344,
      "byteStride": 32,
      "name": "plane03",
      "target": 34962
    },
    {
      "buffer": 0,
      "byteLength": 15960,
      "byteOffset": 37344
    }
  ],
  "buffers": [
    {
      "byteLength": 53304,
      "uri": "out.bin"
    }
  ],
  "materials": [
    {
      "name": "plane03",
      "pbrMetallicRoughness": {
        "baseColorFactor": [
          0.5882353186607361,
          0.5882353186607361,
          0.5882353186607361,
          1.0
        ],
        "metallicFactor": 0.4000000059604645,
        "roughnessFactor": 0.7071067690849304
      }
    }
  ],
  "meshes": [
    {
      "name": "plane03",
      "primitives": [
        {
          "attributes": {
            "NORMAL": 1,
            "POSITION": 0,
            "TEXCOORD_0": 2
          },
          "indices": 3,
          "material": 0
        }
      ]
    }
  ],
  "nodes": [
    {
      "mesh": 0,
      "name": "plane03"
    }
  ],
  "scenes": [
    {
      "nodes": [
        0
      ]
    }
  ]
}